HIERARCHY
ROOT hip
{
	OFFSET 0.000000 0.000000 0.000000 
	CHANNELS 6 Xposition Yposition Zposition Xrotation Zrotation Yrotation
	JOINT abdomen
	{
		OFFSET 0.000000 3.402643 0.000000 
		CHANNELS 3 Xrotation Zrotation Yrotation
		JOINT chest
		{
			OFFSET 0.000000 8.438565 -0.680529 
			CHANNELS 3 Xrotation Zrotation Yrotation
			JOINT neck
			{
				OFFSET 0.000000 10.207942 -0.272212 
				CHANNELS 3 Xrotation Zrotation Yrotation
				JOINT head
				{
					OFFSET 0.000000 3.130431 0.000000 
					CHANNELS 3 Xrotation Zrotation Yrotation
					End Site
					{
						OFFSET 0.000000 3.130435 0.000000 
					}
				}
			}
			JOINT lCollar
			{
				OFFSET 3.470700 6.669187 -0.816635 
				CHANNELS 3 Yrotation Zrotation Xrotation
				JOINT lShldr
				{
					OFFSET 3.198488 0.000000 0.000000 
					CHANNELS 3 Zrotation Yrotation Xrotation
					JOINT lForeArm
					{
						OFFSET 10.139888 0.000000 0.000000 
						CHANNELS 3 Yrotation Zrotation Xrotation
						JOINT lHand
						{
							OFFSET 8.370511 0.000000 0.000000 
							CHANNELS 3 Zrotation Yrotation Xrotation
							End Site
							{
								OFFSET 4.083176 0.000000 0.000000 
							}
						}
					}
				}
			}
			JOINT rCollar
			{
				OFFSET -3.470700 6.669187 -0.816635 
				CHANNELS 3 Yrotation Zrotation Xrotation
				JOINT rShldr
				{
					OFFSET -3.198488 0.000000 0.000000 
					CHANNELS 3 Zrotation Yrotation Xrotation
					JOINT rForeArm
					{
						OFFSET -10.139888 0.000000 0.000000 
						CHANNELS 3 Yrotation Zrotation Xrotation
						JOINT rHand
						{
							OFFSET -8.370511 0.000000 0.000000 
							CHANNELS 3 Zrotation Yrotation Xrotation
							End Site
							{
								OFFSET -4.083176 0.000000 0.000000 
							}
						}
					}
				}
			}
		}
	}
	JOINT lThigh
	{
		OFFSET 5.308129 -1.633274 1.361059 
		CHANNELS 3 Xrotation Zrotation Yrotation
		JOINT lShin
		{
			OFFSET -2.041588 -20.007561 0.000000 
			CHANNELS 3 Xrotation Zrotation Yrotation
			JOINT lFoot
			{
				OFFSET 0.000000 -19.190928 -1.224953 
				CHANNELS 3 Xrotation Yrotation Zrotation
				End Site
				{
					OFFSET 0.000000 -2.449906 4.627600 
				}
			}
		}
	}
	JOINT rThigh
	{
		OFFSET -5.308129 -1.633274 1.361059 
		CHANNELS 3 Xrotation Zrotation Yrotation
		JOINT rShin
		{
			OFFSET 2.041588 -20.007561 0.000000 
			CHANNELS 3 Xrotation Zrotation Yrotation
			JOINT rFoot
			{
				OFFSET 0.000000 -19.190928 -1.224953 
				CHANNELS 3 Xrotation Yrotation Zrotation
				End Site
				{
					OFFSET 0.000000 -2.449906 4.627600 
				}
			}
		}
	}
}
MOTION
Frames: 15
Frame Time: 0.033333
0.938163 34.447632 0.877121 -2.711153 -18.671936 83.493561 0.000000 0.000000 0.000000 1.623786 3.299459 7.164201 3.233491 1.472263 0.083390 -23.907562 -0.485883 2.878016 -5.796053 17.721701 25.000000 -89.362831 -29.526085 -1.665645 -54.157013 -7.550251 17.524769 -15.845453 2.716616 -62.761620 -0.598839 -17.240398 24.303871 63.643711 30.574242 62.554123 49.686974 -43.754284 -5.663997 8.680798 -10.100745 -79.960098 -40.227314 14.369610 17.102095 78.458649 15.117265 0.223076 -28.488115 -5.992297 -14.402236 -47.510715 -2.441381 2.515609 74.993073 -3.651236 5.172507 -27.797461 -14.094722 27.351738 
0.968787 33.913956 0.872721 -3.652850 -18.353819 83.671005 0.000000 0.000000 0.000000 3.123448 4.153998 7.326200 1.201579 1.483051 0.089096 -25.704298 -0.443668 3.251942 -6.393440 17.247400 25.000000 -91.491982 -23.511293 -0.756124 -43.654202 -4.186000 28.364544 -6.762051 2.219522 -62.071148 0.322458 -17.309013 24.599352 66.316589 23.274567 65.644974 44.886238 -37.815929 -7.833727 15.277830 -12.807445 -79.312614 -41.350060 14.164658 16.776531 81.092896 16.895798 0.590255 -32.769669 -2.451219 -14.018887 -48.886097 -1.630740 2.839118 77.525009 -3.729840 5.364428 -23.908863 -15.315448 30.616657 
1.458519 34.813293 0.942247 -3.654505 -18.431786 84.339790 0.000000 0.000000 0.000000 1.986606 3.718473 7.248393 1.661781 2.523320 0.169674 -25.697472 -0.830956 2.617544 -6.946705 17.640835 25.000000 -94.047241 -15.875999 0.409672 -32.378113 -1.977063 33.999599 7.216565 -2.445845 -62.267262 -0.787623 -15.655468 24.309324 67.228836 13.284049 68.207611 41.994400 -30.551620 -7.095814 15.810240 -14.026629 -79.140251 -38.074501 13.729504 17.338049 76.047821 16.289799 0.549919 -30.030140 -3.793560 -10.464939 -44.827946 -2.304597 2.408422 72.680946 -2.684705 5.162871 -26.569103 -15.880006 27.365459 
1.966028 36.307339 0.952284 -3.666874 -19.465033 84.883926 0.000000 0.000000 0.000000 -0.450099 3.583874 7.266840 2.748892 3.365745 0.228904 -24.649061 -1.347598 1.869773 -7.463943 17.765163 25.000000 -94.468964 -5.873925 0.692545 -31.069338 1.295989 50.260624 5.763968 -2.101117 -61.340008 -2.300854 -14.770554 23.920341 67.369072 3.124773 70.289520 39.795284 -26.010693 -4.996026 19.059237 -14.710483 -79.184700 -35.017849 13.241012 17.780752 68.915863 15.374974 0.521977 -23.350056 -6.367410 -9.105960 -41.088467 -2.616854 2.093801 65.734665 -2.137327 4.647871 -21.802004 -15.137116 28.305294 
2.424085 38.161251 0.934235 -3.771134 -21.198330 85.222191 0.000000 0.000000 0.000000 -3.621014 3.742535 7.351725 4.023121 3.924419 0.266264 -23.101427 -1.695073 1.232209 -7.674460 17.899027 25.000000 -92.795876 5.633033 0.115431 -29.821915 -6.936971 33.361248 1.983739 4.244250 -61.145084 -3.685939 -14.542535 23.559799 66.545692 -6.922778 71.735001 38.618782 -23.267067 -1.107298 22.013620 -14.323789 -79.446884 -32.487606 12.937360 18.152395 60.324093 14.163995 0.518575 -13.833645 -9.877991 -7.376723 -38.004379 -2.655967 1.919408 57.421307 -1.678216 3.993650 -12.994891 -13.331141 29.777508 
2.797243 40.285343 0.899612 -4.036521 -23.502600 85.311821 0.000000 0.000000 0.000000 -7.207638 4.272736 7.497321 5.326491 4.145632 0.281851 -21.295158 -1.778028 0.836348 -7.462141 18.161423 25.000000 -89.667549 16.735357 -1.362044 -32.098648 -16.326538 26.613886 -1.812431 7.969129 -61.165298 -4.705682 -14.896880 23.246489 64.603333 -16.871126 72.219582 39.425732 -21.254091 4.195338 22.965088 -12.514839 -79.728546 -30.609217 12.933975 18.499302 50.607204 12.689739 0.590378 -1.982008 -13.971573 -3.940472 -35.748806 -2.480234 1.851904 48.196125 -1.149533 3.201887 -1.818973 -10.543962 30.046555 
2.999415 42.418522 0.845242 -4.217486 -25.418234 85.041687 0.000000 0.000000 0.000000 -9.841409 4.926788 7.652942 6.381732 3.855822 0.260388 -20.041023 -1.568503 1.022549 -6.926317 18.521692 25.000000 -85.867424 25.816545 -3.985444 -37.926384 -20.125618 49.543140 -3.466109 5.400045 -60.055824 -4.830306 -15.486444 23.149786 60.260998 -26.708218 69.908318 45.880817 -17.917418 12.870928 22.048235 -10.316492 -79.851089 -29.492025 13.271391 18.779858 41.626846 11.246620 0.732856 10.160319 -17.992397 0.790863 -34.818523 -2.636664 1.778262 40.962574 0.009806 2.738528 6.792754 -8.118392 27.584862 
3.164856 44.314297 0.799638 -4.332071 -25.892574 84.587410 0.000000 0.000000 0.000000 -10.624283 5.423560 7.764406 7.259340 3.444225 0.221027 -19.373844 -1.362719 1.622006 -6.482042 18.637846 25.000000 -82.437904 32.986454 -7.476715 -38.955807 -26.816393 60.726650 -4.509666 3.210089 -59.336346 -4.449721 -15.822133 23.224171 54.776337 -35.685814 64.362282 53.057106 -11.014254 24.665535 22.155468 -8.055921 -79.960915 -27.855598 13.773316 19.260288 35.324657 9.879240 0.782361 18.155342 -20.195534 4.557735 -33.872086 -2.900262 1.641066 37.065098 1.259561 2.627027 10.295915 -7.684119 23.623131 
3.299252 45.938965 0.763503 -4.433362 -25.109745 84.126442 0.000000 0.000000 0.000000 -9.814747 5.706822 7.832866 7.892322 3.068608 0.189268 -19.108570 -1.236354 2.416782 -6.258931 18.676056 25.000000 -79.796120 38.622959 -11.578032 -35.580746 -33.132439 67.653854 -4.435828 1.150497 -58.929504 -3.825500 -16.077036 23.380558 49.772423 -43.314503 56.648438 57.906185 -1.641772 37.016258 23.014202 -5.664162 -80.032646 -26.044910 14.326241 19.735575 32.256840 8.852199 0.731488 21.718443 -20.639729 6.282886 -32.549408 -3.085793 1.528328 35.844109 2.118792 2.705083 10.421919 -8.888419 20.392107 
3.402690 47.237530 0.738169 -4.544717 -23.098879 83.835480 0.000000 0.000000 0.000000 -7.429318 5.684615 7.834951 8.154791 2.853924 0.173077 -19.089132 -1.245223 3.260741 -6.347137 18.781876 25.000000 -78.188072 42.979561 -15.707749 -30.008316 -37.044014 74.880684 -3.317873 -1.242684 -58.642139 -3.136083 -16.410858 23.565765 46.216251 -48.955772 49.046474 59.616673 7.278656 47.933521 24.374063 -3.600817 -80.039757 -24.243834 14.770121 20.163321 33.067642 8.457612 0.587163 20.047989 -19.232141 5.781132 -30.489561 -2.997634 1.445724 36.765877 2.031012 2.773368 8.055800 -11.757755 19.545473 
3.411105 48.047764 0.765848 -4.956192 -20.914660 83.314285 0.000000 0.000000 0.000000 -4.436768 5.793253 7.842605 7.830860 2.667099 0.158717 -18.990421 -1.151132 4.185443 -5.921165 19.678974 25.000000 -77.883835 45.916580 -18.316772 -26.114548 -37.782097 80.660645 -2.588388 -2.561295 -58.520329 -2.168688 -17.712198 23.775013 45.489059 -52.010742 45.148121 58.739742 11.482190 53.784286 24.851994 -3.372135 -80.049080 -22.778280 15.813039 20.784990 36.260685 8.463036 0.402018 16.254377 -17.146391 4.626865 -28.939293 -2.187057 1.606342 39.398605 1.497561 2.920747 5.651268 -14.020191 20.955004 
3.289994 48.588615 0.768240 -5.205399 -19.622246 83.148720 0.000000 0.000000 0.000000 -2.237589 5.689047 7.795780 7.185374 2.628501 0.160861 -18.844467 -1.204664 4.668479 -5.632020 21.272291 25.000000 -78.123672 47.659721 -19.546869 -23.555500 -37.340374 83.930992 -1.966319 -3.337806 -58.530048 -1.595577 -19.297983 23.882193 45.793324 -54.021378 42.758862 57.239052 13.491164 57.561501 24.765228 -3.726313 -80.067245 -23.016783 16.541847 21.010086 39.834606 9.120053 0.343197 13.810462 -16.429964 4.524893 -28.784754 -1.747748 1.714267 42.183140 1.213994 3.132091 3.773717 -14.832732 21.227760 
3.066278 48.894524 0.746862 -5.253386 -19.182842 83.260666 0.000000 0.000000 0.000000 -0.824023 5.438893 7.715212 6.393906 2.706645 0.170422 -18.348028 -1.358043 4.782016 -5.505154 23.107473 25.000000 -78.545372 48.316082 -19.365631 -22.428259 -36.274986 84.339691 -2.161644 -3.348946 -58.556789 -1.383438 -20.851978 23.877087 46.585976 -55.157742 41.729992 55.676102 13.866179 59.148899 24.323555 -4.520650 -80.087120 -24.665918 16.891630 20.886440 43.388130 10.271193 0.413492 12.773055 -17.160763 5.219153 -29.814646 -1.689297 1.804588 44.845673 1.125773 3.361471 2.298265 -14.323649 20.053719 
2.769934 48.990582 0.702695 -5.027092 -19.559143 83.490921 0.000000 0.000000 0.000000 -0.254880 5.009717 7.595016 5.631635 2.774619 0.178525 -16.903446 -1.463163 4.672383 -5.540442 24.371946 25.000000 -78.831337 47.663765 -18.064049 -22.410080 -34.994469 81.844742 -4.565771 -1.839517 -58.530678 -1.373696 -21.819704 23.829601 47.246525 -55.385544 41.933472 54.593021 13.421113 58.072224 23.932755 -5.685035 -80.114906 -27.313843 16.805904 20.420492 46.228222 11.568854 0.582353 13.225005 -19.519531 6.769592 -31.829269 -1.904181 1.815008 46.970577 1.027943 3.564748 1.113034 -12.610653 17.077051 
2.485071 48.839527 0.630195 -4.459981 -20.402145 83.400856 0.000000 0.000000 0.000000 -0.293868 4.482363 7.477105 4.965871 2.549966 0.164530 -16.765064 -1.323642 4.846124 -5.591192 24.417767 25.000000 -78.963654 46.811501 -17.000824 -23.620398 -34.073139 78.564514 -5.885950 -1.284345 -58.561783 -1.118139 -22.220510 23.905251 48.082809 -55.015915 43.371304 55.861877 11.030560 56.607128 27.095921 -6.613766 -80.261581 -29.879656 16.402731 19.832714 48.097443 12.301612 0.630443 14.578525 -21.569803 8.283182 -34.303013 -2.285141 1.845810 48.590416 0.771366 3.640957 1.090649 -10.995893 16.142891 
